<?xml version="1.0" encoding="utf-8"?>
<!-- Generator: Adobe Illustrator 19.0.1, SVG Export Plug-In . SVG Version: 6.00 Build 0)  -->
<svg version="1.1" id="Layer_1" xmlns="http://www.w3.org/2000/svg" xmlns:xlink="http://www.w3.org/1999/xlink" x="0px" y="0px"
	 viewBox="0 0 50 50" style="enable-background:new 0 0 50 50;" xml:space="preserve">
<style type="text/css">
	.st0{fill-rule:evenodd;clip-rule:evenodd;fill:#E4DAB4;}
</style>
<path class="st0" d="M44.8,24.8L44.8,24.8c1.4,2,2.2,4.3,2.2,6.9c0,6.6-5.4,12-12,12c-2.8,0-12.8,0-16,0c-8.8,0-16-7.2-16-16
	c0-8.8,7.2-16,16-16c2,0,3.9,0.4,5.7,1l0,0c1.6-4.7,6.1-8,11.3-8c0.8,0,1.5,0.1,2.2,0.2C38,5.4,37.9,6,37.9,6.6c0,4.4,3.6,8,8,8
	c0.6,0,1.2-0.1,1.8-0.2c0.1,0.7,0.2,1.5,0.2,2.2C47.9,19.8,46.7,22.6,44.8,24.8z M6.9,27.6c0,6.6,5.4,12,12,12c3.6,0,13,0,16,0
	c4.4,0,8-3.6,8-8c0-4.4-3.6-8-8-8c-1.6,0-3.1,0.5-4.3,1.3c-1.2-5.3-6-9.3-11.7-9.3C12.3,15.6,6.9,21,6.9,27.6z M26.5,13.5
	C26.5,13.5,26.5,13.5,26.5,13.5C26.5,13.5,26.5,13.5,26.5,13.5z M34.2,8.9c-2.9,0.7-5.2,2.9-5.9,5.8l0,0c1.9,1.4,3.5,3.2,4.7,5.2
	c0.7-0.1,1.3-0.2,2-0.2c2.6,0,5,0.8,7,2.3l0,0c0.9-1,1.5-2.2,1.8-3.5C38.9,17.5,35.1,13.7,34.2,8.9z"/>
</svg>
